<?xml version="1.0" encoding="UTF-8" standalone="no"?>
<!-- Created with Inkscape (http://www.inkscape.org/) -->

<svg
   version="1.1"
   id="svg55"
   width="321.93738"
   height="436.72162"
   viewBox="0 0 321.93738 436.72162"
   sodipodi:docname="simpleshop.jpg"
   xml:space="preserve"
   xmlns:inkscape="http://www.inkscape.org/namespaces/inkscape"
   xmlns:sodipodi="http://sodipodi.sourceforge.net/DTD/sodipodi-0.dtd"
   xmlns="http://www.w3.org/2000/svg"
   xmlns:svg="http://www.w3.org/2000/svg"><defs
     id="defs59" /><sodipodi:namedview
     id="namedview57"
     pagecolor="#ffffff"
     bordercolor="#000000"
     borderopacity="0.25"
     inkscape:showpageshadow="2"
     inkscape:pageopacity="0.0"
     inkscape:pagecheckerboard="0"
     inkscape:deskcolor="#d1d1d1"
     showgrid="false" /><g
     inkscape:groupmode="layer"
     inkscape:label="Image"
     id="g61"
     transform="translate(-1589.1429,371.98383)"><path
       style="fill:#16ae7b"
       d="m 1726.5819,63.399669 c -57.5299,-8.81192 -106.0088,-39.35056 -132.5376,-83.49039 -2.7648,-4.60015 -4.8999,-8.88473 -4.7446,-9.52128 0.3955,-1.62193 79.5774,-69.05558 80.17,-68.27522 0.15,0.19753 1.0848,3.50914 2.0773,7.35914 5.2057,20.19307 18.1505,38.09833 36.516,50.50875 11.3395,7.66266 26.8171,12.9312 38.1139,12.97389 5.1102,0.0193 6.4536,-1.02206 9.6528,-7.48264 7.0734,-14.28428 4.476,-30.4797 -6.6604,-41.52891 -7.2538,-7.19699 -16.6705,-11.96476 -41.0874,-20.80287 -43.7041,-15.819449 -63.6578,-27.011509 -84.0935,-47.168219 -15.5926,-15.37963 -25.8501,-33.17535 -31.4141,-54.5 -3.6223,-13.88281 -4.5027,-35.75387 -2.0363,-50.58467 4.8413,-29.11138 16.8592,-52.33594 38.001,-73.4369 12.3561,-12.33223 26.2762,-22.33904 42.0429,-30.22358 10.6674,-5.33448 24.4321,-10.65611 25.305,-9.78324 0.2906,0.29061 0.046,0.52839 -0.5429,0.52839 -0.5892,0 -5.9517,3.20085 -11.9167,7.11301 -12.0364,7.89416 -26.2475,21.48925 -32.8045,31.38251 -27.4784,41.4598 -23.7942,92.05677 9.2172,126.58297 10.3647,10.84025 19.4443,17.54316 32.7419,24.17133 13.3663,6.6624 21.939,9.6756 52,18.27752 22.5937,6.46512 33.0144,11.24556 46.2379,21.21121 19.4392,14.65004 28.2584,38.686339 22.7566,62.021719 -6.2618,26.55815 -32.4648,47.19982 -69.4945,54.7449 -12.4923,2.5454 -32.2939,1.66633 -44.4111,-1.9716 -10.6735,-3.20448 -23.8651,-9.6741 -32.0889,-15.73756 -6.9338,-5.11229 -18.3804,-16.64967 -22.1882,-22.36404 -1.4411,-2.16258 -2.729,-4.07275 -2.8621,-4.24481 -0.1331,-0.17207 -9.0341,7.24641 -19.7801,16.48549 l -19.538,16.79834 2.5704,4.72275 c 4.0689,7.47594 14.4766,19.8619995 25.0558,29.8186095 25.8119,24.2928205 62.2819,41.3495005 98.4922,46.0639405 l 9.75,1.26941 v 5.32715 c 0,6.12636 1.0072,5.82381 -12.5,3.7549 z m 38.7331,-0.87129 c 37.5499,-7.94196 70.0023,-31.21548 86.3333,-61.91456045 8.1614,-15.34194955 11.4336,-28.00563955 11.4336,-44.24942955 0,-26.0681 -9.5584,-48.21066 -30.115,-69.763169 -11.7065,-12.27358 -13.391,-13.68329 -39.4382,-33.00564 -27.1411,-20.13387 -41.1957,-35.28137 -49.9413,-53.82487 -6.5719,-13.93471 -9.5988,-31.91722 -7.5858,-45.06716 0.6709,-4.38264 1.7142,-9.15265 2.3185,-10.60003 1.0131,-2.42665 1.1586,-2.14521 1.8691,3.61377 1.0775,8.73406 5.8376,17.28528 12.7617,22.9256 7.316,5.95955 22.1463,12.96951 41.691,19.70647 19.0517,6.56697 29.9039,11.10164 41.44,17.31597 38.4337,20.70358 62.0317,48.51078 71.1206,83.80659 3.9872,15.483849 5.014,36.475539 2.5463,52.055979 -5.8504,36.93775 -28.1606,69.13015 -64.5653,93.16409 -22.1116,14.59775 -53.5689,25.39795 -77.9856,26.77467 l -8.616,0.48581 z M 1713.0819,-172.2633 c -20.5865,-9.05688 -30.16,-15.07515 -42.0482,-26.43306 -15.0984,-14.42496 -24.4911,-31.51491 -27.9008,-50.76538 -1.6457,-9.29134 -1.2565,-25.94898 0.8426,-36.06634 6.5382,-31.51252 28.0082,-58.54778 58.6064,-73.79775 32.4338,-16.16477 71.643,-16.8663 111.5,-1.99497 38.1543,14.23603 72.4754,42.75072 90.9741,75.58323 3.2081,5.6938 3.2314,5.82576 1.3942,7.90044 -1.0275,1.16046 -18.4782,17.15177 -38.7792,35.53624 l -36.9109,33.42631 -2.3972,-8.30337 c -6.513,-22.55973 -18.0302,-39.23329 -34.8145,-50.40117 -18.3932,-12.23839 -39.7889,-16.15247 -59.9665,-10.97011 -17.9682,4.61491 -34.7251,17.66577 -41.7562,32.52115 -12.344,26.08028 -4.8366,50.8505 21.7562,71.78417 4.0998,3.22731 3.9233,3.92659 -0.5,1.98061 z"
       id="path276"
       inkscape:export-filename="../Documents/simpleshop.svg"
       inkscape:export-xdpi="96"
       inkscape:export-ydpi="96" /></g></svg>
